<!-- PWA Maskable Icon -->
<svg xmlns="http://www.w3.org/2000/svg" viewBox="0 0 512 512" width="512" height="512">
  <!-- Hintergrund full-bleed -->
      <rect width="512" height="512" fill="#17253A"/>
      <!-- Dünner Innenrand -->
      <rect x="16" y="16" width="480" height="480" rx="94" fill="none" stroke="#00C8E8" stroke-width="1.8"/>
  <!-- Lesezeichen -->
  <path fill="#00C8E8" d="M 350,88 L 350,64 Q 350,58 356,58 L 382,58 Q 388,58 388,64 L 388,88 Z"/>

  <!-- Linke Seite -->
  <path fill="none" stroke="#00C8E8" stroke-width="4"
        d="M 78,88 L 248,88 L 248,424 L 78,424 A 28,28 0 0,1 50,396 L 50,116 A 28,28 0 0,1 78,88 Z"/>

  <!-- Rechte Seite -->
  <path fill="none" stroke="#00C8E8" stroke-width="4"
        d="M 264,88 L 434,88 A 28,28 0 0,1 462,116 L 462,396 A 28,28 0 0,1 434,424 L 264,424 Z"/>

  <!-- Buchrücken -->
  <rect x="253" y="88" width="6" height="336" fill="#00C8E8"/>

  <!-- Kapitelüberschrift links -->
  <rect x="68" y="118" width="138" height="17" rx="7" fill="#00C8E8"/>

  <!-- Textzeilen links -->
  <rect x="68" y="150" width="148" height="10" rx="5" fill="rgba(0,200,232,0.65)"/>
  <rect x="68" y="170" width="112" height="10" rx="5" fill="rgba(0,200,232,0.65)"/>
  <rect x="68" y="190" width="134" height="10" rx="5" fill="rgba(0,200,232,0.65)"/>
  <rect x="68" y="210" width="94"  height="10" rx="5" fill="rgba(0,200,232,0.65)"/>
  <rect x="68" y="230" width="126" height="10" rx="5" fill="rgba(0,200,232,0.65)"/>
  <rect x="68" y="250" width="148" height="10" rx="5" fill="rgba(0,200,232,0.65)"/>
  <rect x="68" y="270" width="104" height="10" rx="5" fill="rgba(0,200,232,0.65)"/>
  <rect x="68" y="290" width="130" height="10" rx="5" fill="rgba(0,200,232,0.65)"/>
  <rect x="68" y="310" width="118" height="10" rx="5" fill="rgba(0,200,232,0.65)"/>
  <rect x="68" y="330" width="140" height="10" rx="5" fill="rgba(0,200,232,0.65)"/>
  <rect x="68" y="350" width="96"  height="10" rx="5" fill="rgba(0,200,232,0.65)"/>
  <rect x="68" y="370" width="124" height="10" rx="5" fill="rgba(0,200,232,0.65)"/>

  <!-- Kapitelüberschrift rechts -->
  <rect x="282" y="118" width="138" height="17" rx="7" fill="#00C8E8"/>

  <!-- Textzeilen rechts -->
  <rect x="282" y="150" width="140" height="10" rx="5" fill="rgba(0,200,232,0.65)"/>
  <rect x="282" y="170" width="126" height="10" rx="5" fill="rgba(0,200,232,0.65)"/>
  <rect x="282" y="190" width="100" height="10" rx="5" fill="rgba(0,200,232,0.65)"/>
  <rect x="282" y="210" width="144" height="10" rx="5" fill="rgba(0,200,232,0.65)"/>
  <rect x="282" y="230" width="116" height="10" rx="5" fill="rgba(0,200,232,0.65)"/>
  <rect x="282" y="250" width="132" height="10" rx="5" fill="rgba(0,200,232,0.65)"/>
  <rect x="282" y="270" width="148" height="10" rx="5" fill="rgba(0,200,232,0.65)"/>
  <rect x="282" y="290" width="92"  height="10" rx="5" fill="rgba(0,200,232,0.65)"/>
  <rect x="282" y="310" width="136" height="10" rx="5" fill="rgba(0,200,232,0.65)"/>
  <rect x="282" y="330" width="110" height="10" rx="5" fill="rgba(0,200,232,0.65)"/>
  <rect x="282" y="350" width="140" height="10" rx="5" fill="rgba(0,200,232,0.65)"/>
  <rect x="282" y="370" width="104" height="10" rx="5" fill="rgba(0,200,232,0.65)"/>

</svg>
