<!-- Android Adaptive Icon – Foreground (transparent bg) | SL Monogramm -->
<svg xmlns="http://www.w3.org/2000/svg" viewBox="0 0 512 512" width="512" height="512">
  <defs>
    <linearGradient id="pageL" x1="1" y1="0" x2="0" y2="0">
      <stop offset="0%"   stop-color="#ccdaee"/>
      <stop offset="50%"  stop-color="#f4f8ff"/>
      <stop offset="100%" stop-color="#ffffff"/>
    </linearGradient>
    <linearGradient id="pageR" x1="0" y1="0" x2="1" y2="0">
      <stop offset="0%"   stop-color="#ccdaee"/>
      <stop offset="50%"  stop-color="#f4f8ff"/>
      <stop offset="100%" stop-color="#ffffff"/>
    </linearGradient>
    <linearGradient id="bmGrad" x1="0" y1="0" x2="0" y2="1">
      <stop offset="0%"   stop-color="#6ab4ff"/>
      <stop offset="100%" stop-color="#1a5ec8"/>
    </linearGradient>
  </defs>

  <!-- Lesezeichen -->
  <path fill="url(#bmGrad)" d="M 413,76 A 4,4 0 0,1 417,72 L 441,72 A 4,4 0 0,1 445,76 L 445,158 L 429,143 L 413,158 Z"/>
  <rect x="413" y="72" width="32" height="6" rx="3" fill="rgba(255,255,255,0.32)"/>

  <!-- Linke Seite -->
  <path fill="url(#pageL)" d="M 78,88 L 248,88 L 248,424 L 78,424 A 28,28 0 0,1 50,396 L 50,116 A 28,28 0 0,1 78,88 Z"/>

  <!-- Rechte Seite -->
  <path fill="url(#pageR)" d="M 264,88 L 434,88 A 28,28 0 0,1 462,116 L 462,396 A 28,28 0 0,1 434,424 L 264,424 Z"/>

  <!-- Buchrücken -->
  <rect x="248" y="88" width="16" height="336" fill="rgba(0,10,25,0.45)"/>
  <rect x="254" y="88" width="3"  height="336" fill="rgba(255,255,255,0.10)"/>

  <!-- Kapitelüberschrift links -->
  <rect x="68" y="118" width="138" height="17" rx="7" fill="#a8bdd6"/>

  <!-- Textzeilen links -->
  <rect x="68" y="150" width="148" height="10" rx="5" fill="#8fa8c4"/>
  <rect x="68" y="170" width="112" height="10" rx="5" fill="#8fa8c4"/>
  <rect x="68" y="190" width="134" height="10" rx="5" fill="#8fa8c4"/>
  <rect x="68" y="210" width="94"  height="10" rx="5" fill="#8fa8c4"/>
  <rect x="68" y="230" width="126" height="10" rx="5" fill="#8fa8c4"/>
  <rect x="68" y="250" width="148" height="10" rx="5" fill="#8fa8c4"/>
  <rect x="68" y="270" width="104" height="10" rx="5" fill="#8fa8c4"/>
  <rect x="68" y="290" width="130" height="10" rx="5" fill="#8fa8c4"/>
  <rect x="68" y="310" width="118" height="10" rx="5" fill="#8fa8c4"/>
  <rect x="68" y="330" width="140" height="10" rx="5" fill="#8fa8c4"/>
  <rect x="68" y="350" width="96"  height="10" rx="5" fill="#8fa8c4"/>
  <rect x="68" y="370" width="124" height="10" rx="5" fill="#8fa8c4"/>

  <!-- Kapitelüberschrift rechts -->
  <rect x="282" y="118" width="138" height="17" rx="7" fill="#a8bdd6"/>

  <!-- Textzeilen rechts -->
  <rect x="282" y="150" width="140" height="10" rx="5" fill="#8fa8c4"/>
  <rect x="282" y="170" width="126" height="10" rx="5" fill="#8fa8c4"/>
  <rect x="282" y="190" width="100" height="10" rx="5" fill="#8fa8c4"/>
  <rect x="282" y="210" width="144" height="10" rx="5" fill="#8fa8c4"/>
  <rect x="282" y="230" width="116" height="10" rx="5" fill="#8fa8c4"/>
  <rect x="282" y="250" width="132" height="10" rx="5" fill="#8fa8c4"/>
  <rect x="282" y="270" width="148" height="10" rx="5" fill="#8fa8c4"/>
  <rect x="282" y="290" width="92"  height="10" rx="5" fill="#8fa8c4"/>
  <rect x="282" y="310" width="136" height="10" rx="5" fill="#8fa8c4"/>
  <rect x="282" y="330" width="110" height="10" rx="5" fill="#8fa8c4"/>
  <rect x="282" y="350" width="140" height="10" rx="5" fill="#8fa8c4"/>
  <rect x="282" y="370" width="104" height="10" rx="5" fill="#8fa8c4"/>

</svg>
